<?xml version="1.0" encoding="utf-8"?>
<!-- Generator: Adobe Illustrator 22.1.0, SVG Export Plug-In . SVG Version: 6.00 Build 0)  -->
<svg version="1.1" xmlns="http://www.w3.org/2000/svg" xmlns:xlink="http://www.w3.org/1999/xlink" x="0px" y="0px"
	 viewBox="0 0 1584 792" style="enable-background:new 0 0 1584 792;" xml:space="preserve">
<style type="text/css">
	.st0{fill:#E5E6E7;}
	.st1{fill:none;}
	.st2{fill:#203C59;}
	.st3{font-family:'Lato-Regular',Monaco,'Courier New',monospace;}
	.st4{font-size:18px;}
	.st5{letter-spacing:1;}
	.st6{fill:none;stroke:#E5E6E7;stroke-width:16;stroke-miterlimit:10;}
	.st7{fill:#FFD770;}
	.st8{fill:#FF3D6C;}
	.st9{font-family:'Lato-Bold','Lato-Regular',Monaco,'Courier New',monospace;letter-spacing:2px;}
	.st10{font-size:50px;}
	.st11{letter-spacing:7;}
	.st12{font-size:30px;}
</style>
<g id="grid">
	<g>
		<g>
			<circle class="st0" cx="1001.5" cy="256.6" r="1"/>
			<circle class="st0" cx="1001.5" cy="264.5" r="1"/>
			<circle class="st0" cx="1001.5" cy="272.5" r="1"/>
			<circle class="st0" cx="1001.5" cy="280.4" r="1"/>
			<circle class="st0" cx="1001.5" cy="288.3" r="1"/>
			<circle class="st0" cx="1001.5" cy="296.2" r="1"/>
			<circle class="st0" cx="1001.5" cy="304.1" r="1"/>
			<circle class="st0" cx="1001.5" cy="312" r="1"/>
			<circle class="st0" cx="1001.5" cy="319.9" r="1"/>
			<circle class="st0" cx="1001.5" cy="327.8" r="1"/>
			<circle class="st0" cx="1001.5" cy="335.8" r="1"/>
			<circle class="st0" cx="1001.5" cy="343.7" r="1"/>
			<circle class="st0" cx="1001.5" cy="351.6" r="1"/>
			<circle class="st0" cx="1001.5" cy="359.5" r="1"/>
			<circle class="st0" cx="1001.5" cy="367.4" r="1"/>
			<circle class="st0" cx="1001.5" cy="375.3" r="1"/>
			<circle class="st0" cx="1001.5" cy="383.2" r="1"/>
			<circle class="st0" cx="1001.5" cy="391.2" r="1"/>
			<circle class="st0" cx="1001.5" cy="399.1" r="1"/>
			<circle class="st0" cx="1001.5" cy="407" r="1"/>
			<circle class="st0" cx="1001.5" cy="414.9" r="1"/>
			<circle class="st0" cx="1001.5" cy="422.8" r="1"/>
			<circle class="st0" cx="1001.5" cy="430.7" r="1"/>
			<circle class="st0" cx="1001.5" cy="438.6" r="1"/>
			<circle class="st0" cx="1001.5" cy="446.5" r="1"/>
			<circle class="st0" cx="1001.5" cy="454.5" r="1"/>
			<circle class="st0" cx="1001.5" cy="462.4" r="1"/>
			<circle class="st0" cx="1001.5" cy="470.3" r="1"/>
			<circle class="st0" cx="1001.5" cy="478.2" r="1"/>
			<circle class="st0" cx="1001.5" cy="486.1" r="1"/>
			<circle class="st0" cx="1001.5" cy="494" r="1"/>
			<circle class="st0" cx="1001.5" cy="501.9" r="1"/>
			<circle class="st0" cx="1001.5" cy="509.8" r="1"/>
			<circle class="st0" cx="1001.5" cy="517.8" r="1"/>
			<circle class="st0" cx="1001.5" cy="525.7" r="1"/>
			<circle class="st0" cx="1001.5" cy="533.6" r="1"/>
			<circle class="st0" cx="1001.5" cy="541.5" r="1"/>
			<circle class="st0" cx="1001.5" cy="549.4" r="1"/>
			<circle class="st0" cx="1001.5" cy="557.3" r="1"/>
			<circle class="st0" cx="1001.5" cy="565.2" r="1"/>
			<circle class="st0" cx="1001.5" cy="573.2" r="1"/>
			<circle class="st0" cx="1001.5" cy="581.1" r="1"/>
			<circle class="st0" cx="1001.5" cy="589" r="1"/>
			<circle class="st0" cx="1001.5" cy="596.9" r="1"/>
			<circle class="st0" cx="1001.5" cy="604.8" r="1"/>
			<circle class="st0" cx="1001.5" cy="612.7" r="1"/>
			<circle class="st0" cx="1001.5" cy="620.6" r="1"/>
			<circle class="st0" cx="1001.5" cy="628.5" r="1"/>
			<circle class="st0" cx="1001.5" cy="636.5" r="1"/>
			<circle class="st0" cx="1001.5" cy="644.4" r="1"/>
			<circle class="st0" cx="1001.5" cy="652.3" r="1"/>
			<circle class="st0" cx="1001.5" cy="660.2" r="1"/>
			<circle class="st0" cx="1001.5" cy="668.1" r="1"/>
			<circle class="st0" cx="1001.5" cy="676" r="1"/>
			<circle class="st0" cx="1001.5" cy="683.9" r="1"/>
		</g>
		<rect x="976.8" y="705.2" class="st1" width="49.5" height="14.8"/>
		<text transform="matrix(1 0 0 1 977.9534 718.4929)" class="st2 st3 st4 st5">1920</text>
	</g>
	<g>
		<g>
			<circle class="st0" cx="543.5" cy="256.6" r="1"/>
			<circle class="st0" cx="543.5" cy="264.5" r="1"/>
			<circle class="st0" cx="543.5" cy="272.5" r="1"/>
			<circle class="st0" cx="543.5" cy="280.4" r="1"/>
			<circle class="st0" cx="543.5" cy="288.3" r="1"/>
			<circle class="st0" cx="543.5" cy="296.2" r="1"/>
			<circle class="st0" cx="543.5" cy="304.1" r="1"/>
			<circle class="st0" cx="543.5" cy="312" r="1"/>
			<circle class="st0" cx="543.5" cy="319.9" r="1"/>
			<circle class="st0" cx="543.5" cy="327.8" r="1"/>
			<circle class="st0" cx="543.5" cy="335.8" r="1"/>
			<circle class="st0" cx="543.5" cy="343.7" r="1"/>
			<circle class="st0" cx="543.5" cy="351.6" r="1"/>
			<circle class="st0" cx="543.5" cy="359.5" r="1"/>
			<circle class="st0" cx="543.5" cy="367.4" r="1"/>
			<circle class="st0" cx="543.5" cy="375.3" r="1"/>
			<circle class="st0" cx="543.5" cy="383.2" r="1"/>
			<circle class="st0" cx="543.5" cy="391.2" r="1"/>
			<circle class="st0" cx="543.5" cy="399.1" r="1"/>
			<circle class="st0" cx="543.5" cy="407" r="1"/>
			<circle class="st0" cx="543.5" cy="414.9" r="1"/>
			<circle class="st0" cx="543.5" cy="422.8" r="1"/>
			<circle class="st0" cx="543.5" cy="430.7" r="1"/>
			<circle class="st0" cx="543.5" cy="438.6" r="1"/>
			<circle class="st0" cx="543.5" cy="446.5" r="1"/>
			<circle class="st0" cx="543.5" cy="454.5" r="1"/>
			<circle class="st0" cx="543.5" cy="462.4" r="1"/>
			<circle class="st0" cx="543.5" cy="470.3" r="1"/>
			<circle class="st0" cx="543.5" cy="478.2" r="1"/>
			<circle class="st0" cx="543.5" cy="486.1" r="1"/>
			<circle class="st0" cx="543.5" cy="494" r="1"/>
			<circle class="st0" cx="543.5" cy="501.9" r="1"/>
			<circle class="st0" cx="543.5" cy="509.8" r="1"/>
			<circle class="st0" cx="543.5" cy="517.8" r="1"/>
			<circle class="st0" cx="543.5" cy="525.7" r="1"/>
			<circle class="st0" cx="543.5" cy="533.6" r="1"/>
			<circle class="st0" cx="543.5" cy="541.5" r="1"/>
			<circle class="st0" cx="543.5" cy="549.4" r="1"/>
			<circle class="st0" cx="543.5" cy="557.3" r="1"/>
			<circle class="st0" cx="543.5" cy="565.2" r="1"/>
			<circle class="st0" cx="543.5" cy="573.2" r="1"/>
			<circle class="st0" cx="543.5" cy="581.1" r="1"/>
			<circle class="st0" cx="543.5" cy="589" r="1"/>
			<circle class="st0" cx="543.5" cy="596.9" r="1"/>
			<circle class="st0" cx="543.5" cy="604.8" r="1"/>
			<circle class="st0" cx="543.5" cy="612.7" r="1"/>
			<circle class="st0" cx="543.5" cy="620.6" r="1"/>
			<circle class="st0" cx="543.5" cy="628.5" r="1"/>
			<circle class="st0" cx="543.5" cy="636.5" r="1"/>
			<circle class="st0" cx="543.5" cy="644.4" r="1"/>
			<circle class="st0" cx="543.5" cy="652.3" r="1"/>
			<circle class="st0" cx="543.5" cy="660.2" r="1"/>
			<circle class="st0" cx="543.5" cy="668.1" r="1"/>
			<circle class="st0" cx="543.5" cy="676" r="1"/>
			<circle class="st0" cx="543.5" cy="683.9" r="1"/>
		</g>
		<rect x="518.8" y="705.2" class="st1" width="49.5" height="14.8"/>
		<text transform="matrix(1 0 0 1 519.9458 718.4929)" class="st2 st3 st4 st5">1860</text>
	</g>
	<g>
		<g>
			<circle class="st0" cx="696.2" cy="256.6" r="1"/>
			<circle class="st0" cx="696.2" cy="264.5" r="1"/>
			<circle class="st0" cx="696.2" cy="272.5" r="1"/>
			<circle class="st0" cx="696.2" cy="280.4" r="1"/>
			<circle class="st0" cx="696.2" cy="288.3" r="1"/>
			<circle class="st0" cx="696.2" cy="296.2" r="1"/>
			<circle class="st0" cx="696.2" cy="304.1" r="1"/>
			<circle class="st0" cx="696.2" cy="312" r="1"/>
			<circle class="st0" cx="696.2" cy="319.9" r="1"/>
			<circle class="st0" cx="696.2" cy="327.8" r="1"/>
			<circle class="st0" cx="696.2" cy="335.8" r="1"/>
			<circle class="st0" cx="696.2" cy="343.7" r="1"/>
			<circle class="st0" cx="696.2" cy="351.6" r="1"/>
			<circle class="st0" cx="696.2" cy="359.5" r="1"/>
			<circle class="st0" cx="696.2" cy="367.4" r="1"/>
			<circle class="st0" cx="696.2" cy="375.3" r="1"/>
			<circle class="st0" cx="696.2" cy="383.2" r="1"/>
			<circle class="st0" cx="696.2" cy="391.2" r="1"/>
			<circle class="st0" cx="696.2" cy="399.1" r="1"/>
			<circle class="st0" cx="696.2" cy="407" r="1"/>
			<circle class="st0" cx="696.2" cy="414.9" r="1"/>
			<circle class="st0" cx="696.2" cy="422.8" r="1"/>
			<circle class="st0" cx="696.2" cy="430.7" r="1"/>
			<circle class="st0" cx="696.2" cy="438.6" r="1"/>
			<circle class="st0" cx="696.2" cy="446.5" r="1"/>
			<circle class="st0" cx="696.2" cy="454.5" r="1"/>
			<circle class="st0" cx="696.2" cy="462.4" r="1"/>
			<circle class="st0" cx="696.2" cy="470.3" r="1"/>
			<circle class="st0" cx="696.2" cy="478.2" r="1"/>
			<circle class="st0" cx="696.2" cy="486.1" r="1"/>
			<circle class="st0" cx="696.2" cy="494" r="1"/>
			<circle class="st0" cx="696.2" cy="501.9" r="1"/>
			<circle class="st0" cx="696.2" cy="509.8" r="1"/>
			<circle class="st0" cx="696.2" cy="517.8" r="1"/>
			<circle class="st0" cx="696.2" cy="525.7" r="1"/>
			<circle class="st0" cx="696.2" cy="533.6" r="1"/>
			<circle class="st0" cx="696.2" cy="541.5" r="1"/>
			<circle class="st0" cx="696.2" cy="549.4" r="1"/>
			<circle class="st0" cx="696.2" cy="557.3" r="1"/>
			<circle class="st0" cx="696.2" cy="565.2" r="1"/>
			<circle class="st0" cx="696.2" cy="573.2" r="1"/>
			<circle class="st0" cx="696.2" cy="581.1" r="1"/>
			<circle class="st0" cx="696.2" cy="589" r="1"/>
			<circle class="st0" cx="696.2" cy="596.9" r="1"/>
			<circle class="st0" cx="696.2" cy="604.8" r="1"/>
			<circle class="st0" cx="696.2" cy="612.7" r="1"/>
			<circle class="st0" cx="696.2" cy="620.6" r="1"/>
			<circle class="st0" cx="696.2" cy="628.5" r="1"/>
			<circle class="st0" cx="696.2" cy="636.5" r="1"/>
			<circle class="st0" cx="696.2" cy="644.4" r="1"/>
			<circle class="st0" cx="696.2" cy="652.3" r="1"/>
			<circle class="st0" cx="696.2" cy="660.2" r="1"/>
			<circle class="st0" cx="696.2" cy="668.1" r="1"/>
			<circle class="st0" cx="696.2" cy="676" r="1"/>
			<circle class="st0" cx="696.2" cy="683.9" r="1"/>
		</g>
		<rect x="671.4" y="705.2" class="st1" width="49.5" height="14.8"/>
		<text transform="matrix(1 0 0 1 672.615 718.4929)" class="st2 st3 st4 st5">1880</text>
	</g>
	<g>
		<g>
			<circle class="st0" cx="848.9" cy="256.6" r="1"/>
			<circle class="st0" cx="848.9" cy="264.5" r="1"/>
			<circle class="st0" cx="848.9" cy="272.5" r="1"/>
			<circle class="st0" cx="848.9" cy="280.4" r="1"/>
			<circle class="st0" cx="848.9" cy="288.3" r="1"/>
			<circle class="st0" cx="848.9" cy="296.2" r="1"/>
			<circle class="st0" cx="848.9" cy="304.1" r="1"/>
			<circle class="st0" cx="848.9" cy="312" r="1"/>
			<circle class="st0" cx="848.9" cy="319.9" r="1"/>
			<circle class="st0" cx="848.9" cy="327.8" r="1"/>
			<circle class="st0" cx="848.9" cy="335.8" r="1"/>
			<circle class="st0" cx="848.9" cy="343.7" r="1"/>
			<circle class="st0" cx="848.9" cy="351.6" r="1"/>
			<circle class="st0" cx="848.9" cy="359.5" r="1"/>
			<circle class="st0" cx="848.9" cy="367.4" r="1"/>
			<circle class="st0" cx="848.9" cy="375.3" r="1"/>
			<circle class="st0" cx="848.9" cy="383.2" r="1"/>
			<circle class="st0" cx="848.9" cy="391.2" r="1"/>
			<circle class="st0" cx="848.9" cy="399.1" r="1"/>
			<circle class="st0" cx="848.9" cy="407" r="1"/>
			<circle class="st0" cx="848.9" cy="414.9" r="1"/>
			<circle class="st0" cx="848.9" cy="422.8" r="1"/>
			<circle class="st0" cx="848.9" cy="430.7" r="1"/>
			<circle class="st0" cx="848.9" cy="438.6" r="1"/>
			<circle class="st0" cx="848.9" cy="446.5" r="1"/>
			<circle class="st0" cx="848.9" cy="454.5" r="1"/>
			<circle class="st0" cx="848.9" cy="462.4" r="1"/>
			<circle class="st0" cx="848.9" cy="470.3" r="1"/>
			<circle class="st0" cx="848.9" cy="478.2" r="1"/>
			<circle class="st0" cx="848.9" cy="486.1" r="1"/>
			<circle class="st0" cx="848.9" cy="494" r="1"/>
			<circle class="st0" cx="848.9" cy="501.9" r="1"/>
			<circle class="st0" cx="848.9" cy="509.8" r="1"/>
			<circle class="st0" cx="848.9" cy="517.8" r="1"/>
			<circle class="st0" cx="848.9" cy="525.7" r="1"/>
			<circle class="st0" cx="848.9" cy="533.6" r="1"/>
			<circle class="st0" cx="848.9" cy="541.5" r="1"/>
			<circle class="st0" cx="848.9" cy="549.4" r="1"/>
			<circle class="st0" cx="848.9" cy="557.3" r="1"/>
			<circle class="st0" cx="848.9" cy="565.2" r="1"/>
			<circle class="st0" cx="848.9" cy="573.2" r="1"/>
			<circle class="st0" cx="848.9" cy="581.1" r="1"/>
			<circle class="st0" cx="848.9" cy="589" r="1"/>
			<circle class="st0" cx="848.9" cy="596.9" r="1"/>
			<circle class="st0" cx="848.9" cy="604.8" r="1"/>
			<circle class="st0" cx="848.9" cy="612.7" r="1"/>
			<circle class="st0" cx="848.9" cy="620.6" r="1"/>
			<circle class="st0" cx="848.9" cy="628.5" r="1"/>
			<circle class="st0" cx="848.9" cy="636.5" r="1"/>
			<circle class="st0" cx="848.9" cy="644.4" r="1"/>
			<circle class="st0" cx="848.9" cy="652.3" r="1"/>
			<circle class="st0" cx="848.9" cy="660.2" r="1"/>
			<circle class="st0" cx="848.9" cy="668.1" r="1"/>
			<circle class="st0" cx="848.9" cy="676" r="1"/>
			<circle class="st0" cx="848.9" cy="683.9" r="1"/>
		</g>
		<rect x="824.1" y="705.2" class="st1" width="49.5" height="14.8"/>
		<text transform="matrix(1 0 0 1 825.2842 718.4929)" class="st2 st3 st4 st5">1900</text>
	</g>
	<g>
		<g>
			<circle class="st0" cx="1154.2" cy="256.6" r="1"/>
			<circle class="st0" cx="1154.2" cy="264.5" r="1"/>
			<circle class="st0" cx="1154.2" cy="272.5" r="1"/>
			<circle class="st0" cx="1154.2" cy="280.4" r="1"/>
			<circle class="st0" cx="1154.2" cy="288.3" r="1"/>
			<circle class="st0" cx="1154.2" cy="296.2" r="1"/>
			<circle class="st0" cx="1154.2" cy="304.1" r="1"/>
			<circle class="st0" cx="1154.2" cy="312" r="1"/>
			<circle class="st0" cx="1154.2" cy="319.9" r="1"/>
			<circle class="st0" cx="1154.2" cy="327.8" r="1"/>
			<circle class="st0" cx="1154.2" cy="335.8" r="1"/>
			<circle class="st0" cx="1154.2" cy="343.7" r="1"/>
			<circle class="st0" cx="1154.2" cy="351.6" r="1"/>
			<circle class="st0" cx="1154.2" cy="359.5" r="1"/>
			<circle class="st0" cx="1154.2" cy="367.4" r="1"/>
			<circle class="st0" cx="1154.2" cy="375.3" r="1"/>
			<circle class="st0" cx="1154.2" cy="383.2" r="1"/>
			<circle class="st0" cx="1154.2" cy="391.2" r="1"/>
			<circle class="st0" cx="1154.2" cy="399.1" r="1"/>
			<circle class="st0" cx="1154.2" cy="407" r="1"/>
			<circle class="st0" cx="1154.2" cy="414.9" r="1"/>
			<circle class="st0" cx="1154.2" cy="422.8" r="1"/>
			<circle class="st0" cx="1154.2" cy="430.7" r="1"/>
			<circle class="st0" cx="1154.2" cy="438.6" r="1"/>
			<circle class="st0" cx="1154.2" cy="446.5" r="1"/>
			<circle class="st0" cx="1154.2" cy="454.5" r="1"/>
			<circle class="st0" cx="1154.2" cy="462.4" r="1"/>
			<circle class="st0" cx="1154.2" cy="470.3" r="1"/>
			<circle class="st0" cx="1154.2" cy="478.2" r="1"/>
			<circle class="st0" cx="1154.2" cy="486.1" r="1"/>
			<circle class="st0" cx="1154.2" cy="494" r="1"/>
			<circle class="st0" cx="1154.2" cy="501.9" r="1"/>
			<circle class="st0" cx="1154.2" cy="509.8" r="1"/>
			<circle class="st0" cx="1154.2" cy="517.8" r="1"/>
			<circle class="st0" cx="1154.2" cy="525.7" r="1"/>
			<circle class="st0" cx="1154.2" cy="533.6" r="1"/>
			<circle class="st0" cx="1154.2" cy="541.5" r="1"/>
			<circle class="st0" cx="1154.2" cy="549.4" r="1"/>
			<circle class="st0" cx="1154.2" cy="557.3" r="1"/>
			<circle class="st0" cx="1154.2" cy="565.2" r="1"/>
			<circle class="st0" cx="1154.2" cy="573.2" r="1"/>
			<circle class="st0" cx="1154.2" cy="581.1" r="1"/>
			<circle class="st0" cx="1154.2" cy="589" r="1"/>
			<circle class="st0" cx="1154.2" cy="596.9" r="1"/>
			<circle class="st0" cx="1154.2" cy="604.8" r="1"/>
			<circle class="st0" cx="1154.2" cy="612.7" r="1"/>
			<circle class="st0" cx="1154.2" cy="620.6" r="1"/>
			<circle class="st0" cx="1154.2" cy="628.5" r="1"/>
			<circle class="st0" cx="1154.2" cy="636.5" r="1"/>
			<circle class="st0" cx="1154.2" cy="644.4" r="1"/>
			<circle class="st0" cx="1154.2" cy="652.3" r="1"/>
			<circle class="st0" cx="1154.2" cy="660.2" r="1"/>
			<circle class="st0" cx="1154.2" cy="668.1" r="1"/>
			<circle class="st0" cx="1154.2" cy="676" r="1"/>
			<circle class="st0" cx="1154.2" cy="683.9" r="1"/>
		</g>
		<rect x="1129.4" y="705.2" class="st1" width="49.5" height="14.8"/>
		<text transform="matrix(1 0 0 1 1130.6227 718.4929)" class="st2 st3 st4 st5">1940 </text>
	</g>
	<g>
		<g>
			<circle class="st0" cx="1306.9" cy="256.6" r="1"/>
			<circle class="st0" cx="1306.9" cy="264.5" r="1"/>
			<circle class="st0" cx="1306.9" cy="272.5" r="1"/>
			<circle class="st0" cx="1306.9" cy="280.4" r="1"/>
			<circle class="st0" cx="1306.9" cy="288.3" r="1"/>
			<circle class="st0" cx="1306.9" cy="296.2" r="1"/>
			<circle class="st0" cx="1306.9" cy="304.1" r="1"/>
			<circle class="st0" cx="1306.9" cy="312" r="1"/>
			<circle class="st0" cx="1306.9" cy="319.9" r="1"/>
			<circle class="st0" cx="1306.9" cy="327.8" r="1"/>
			<circle class="st0" cx="1306.9" cy="335.8" r="1"/>
			<circle class="st0" cx="1306.9" cy="343.7" r="1"/>
			<circle class="st0" cx="1306.9" cy="351.6" r="1"/>
			<circle class="st0" cx="1306.9" cy="359.5" r="1"/>
			<circle class="st0" cx="1306.9" cy="367.4" r="1"/>
			<circle class="st0" cx="1306.9" cy="375.3" r="1"/>
			<circle class="st0" cx="1306.9" cy="383.2" r="1"/>
			<circle class="st0" cx="1306.9" cy="391.2" r="1"/>
			<circle class="st0" cx="1306.9" cy="399.1" r="1"/>
			<circle class="st0" cx="1306.9" cy="407" r="1"/>
			<circle class="st0" cx="1306.9" cy="414.9" r="1"/>
			<circle class="st0" cx="1306.9" cy="422.8" r="1"/>
			<circle class="st0" cx="1306.9" cy="430.7" r="1"/>
			<circle class="st0" cx="1306.9" cy="438.6" r="1"/>
			<circle class="st0" cx="1306.9" cy="446.5" r="1"/>
			<circle class="st0" cx="1306.9" cy="454.5" r="1"/>
			<circle class="st0" cx="1306.9" cy="462.4" r="1"/>
			<circle class="st0" cx="1306.9" cy="470.3" r="1"/>
			<circle class="st0" cx="1306.9" cy="478.2" r="1"/>
			<circle class="st0" cx="1306.9" cy="486.1" r="1"/>
			<circle class="st0" cx="1306.9" cy="494" r="1"/>
			<circle class="st0" cx="1306.9" cy="501.9" r="1"/>
			<circle class="st0" cx="1306.9" cy="509.8" r="1"/>
			<circle class="st0" cx="1306.9" cy="517.8" r="1"/>
			<circle class="st0" cx="1306.9" cy="525.7" r="1"/>
			<circle class="st0" cx="1306.9" cy="533.6" r="1"/>
			<circle class="st0" cx="1306.9" cy="541.5" r="1"/>
			<circle class="st0" cx="1306.9" cy="549.4" r="1"/>
			<circle class="st0" cx="1306.9" cy="557.3" r="1"/>
			<circle class="st0" cx="1306.9" cy="565.2" r="1"/>
			<circle class="st0" cx="1306.9" cy="573.2" r="1"/>
			<circle class="st0" cx="1306.9" cy="581.1" r="1"/>
			<circle class="st0" cx="1306.9" cy="589" r="1"/>
			<circle class="st0" cx="1306.9" cy="596.9" r="1"/>
			<circle class="st0" cx="1306.9" cy="604.8" r="1"/>
			<circle class="st0" cx="1306.9" cy="612.7" r="1"/>
			<circle class="st0" cx="1306.9" cy="620.6" r="1"/>
			<circle class="st0" cx="1306.9" cy="628.5" r="1"/>
			<circle class="st0" cx="1306.9" cy="636.5" r="1"/>
			<circle class="st0" cx="1306.9" cy="644.4" r="1"/>
			<circle class="st0" cx="1306.9" cy="652.3" r="1"/>
			<circle class="st0" cx="1306.9" cy="660.2" r="1"/>
			<circle class="st0" cx="1306.9" cy="668.1" r="1"/>
			<circle class="st0" cx="1306.9" cy="676" r="1"/>
			<circle class="st0" cx="1306.9" cy="683.9" r="1"/>
		</g>
		<rect x="1282.1" y="705.2" class="st1" width="49.5" height="14.8"/>
		<text transform="matrix(1 0 0 1 1283.2919 718.4929)" class="st2 st3 st4 st5">1960 </text>
	</g>
	<rect x="751.7" y="399.2" class="st1" width="49.5" height="14.8"/>
	<text transform="matrix(1 0 0 1 752.9323 412.4826)" class="st2 st3 st4 st5">1897</text>
	<rect x="1291.3" y="399.2" class="st1" width="49.5" height="14.8"/>
	<text transform="matrix(1 0 0 1 1292.536 412.4826)" class="st2 st3 st4 st5">1955</text>
	<rect x="585.7" y="337.3" class="st1" width="49.5" height="14.8"/>
	<text transform="matrix(1 0 0 1 586.9323 350.5317)" class="st2 st3 st4 st5">1875</text>
	<rect x="1258.2" y="337.3" class="st1" width="49.5" height="14.8"/>
	<text transform="matrix(1 0 0 1 1259.429 350.5317)" class="st2 st3 st4 st5">1951</text>
	<rect x="334.3" y="275.3" class="st1" width="49.5" height="14.8"/>
	<text transform="matrix(1 0 0 1 335.4448 288.5808)" class="st2 st3 st4 st5">1842</text>
	<rect x="1450.8" y="275.3" class="st1" width="49.5" height="14.8"/>
	<text transform="matrix(1 0 0 1 1451.9757 288.5808)" class="st2 st3 st4 st5">1976</text>
	<rect x="682.7" y="461.2" class="st1" width="49.5" height="14.8"/>
	<text transform="matrix(1 0 0 1 683.9323 474.4334)" class="st2 st3 st4 st5">1888</text>
	<rect x="1254" y="461.2" class="st1" width="49.5" height="14.8"/>
	<text transform="matrix(1 0 0 1 1255.1791 474.4334)" class="st2 st3 st4 st5">1950</text>
	<rect x="432.7" y="523.1" class="st1" width="49.5" height="14.8"/>
	<text transform="matrix(1 0 0 1 433.9332 536.3843)" class="st2 st3 st4 st5">1855</text>
	<rect x="1450.8" y="523.1" class="st1" width="49.5" height="14.8"/>
	<text transform="matrix(1 0 0 1 1451.9767 536.3843)" class="st2 st3 st4 st5">1976</text>
	<rect x="646.7" y="585.1" class="st1" width="49.5" height="14.8"/>
	<text transform="matrix(1 0 0 1 647.9332 598.3352)" class="st2 st3 st4 st5">1883</text>
	<rect x="1427.7" y="585.1" class="st1" width="49.5" height="14.8"/>
	<text transform="matrix(1 0 0 1 1428.9315 598.3352)" class="st2 st3 st4 st5">1973</text>
	<rect x="562.7" y="647" class="st1" width="49.5" height="14.8"/>
	<text transform="matrix(1 0 0 1 563.9332 660.2861)" class="st2 st3 st4 st5">1872</text>
	<rect x="1025.5" y="647" class="st1" width="49.5" height="14.8"/>
	<text transform="matrix(1 0 0 1 1026.6802 660.2861)" class="st2 st3 st4 st5">1920</text>
</g>
<g id="graph">
	<line class="st6" x1="403.6" y1="282.7" x2="1426.9" y2="282.7"/>
	<line class="st6" x1="654.7" y1="344.7" x2="1234.7" y2="344.7"/>
	<line class="st6" x1="819.6" y1="406.6" x2="1269.2" y2="406.6"/>
	<line class="st6" x1="754.9" y1="468.6" x2="1232.4" y2="468.6"/>
	<line class="st6" x1="634.1" y1="654.4" x2="1001.5" y2="654.4"/>
	<line class="st6" x1="502.4" y1="530.5" x2="1426.9" y2="530.5"/>
	<line class="st6" x1="716.4" y1="592.5" x2="1403.8" y2="592.5"/>
	<circle class="st7" cx="405.7" cy="282.7" r="16.9"/>
	<circle class="st7" cx="656.9" cy="344.7" r="16.9"/>
	<circle class="st7" cx="823.6" cy="406.6" r="16.9"/>
	<circle class="st7" cx="754.9" cy="468.6" r="16.9"/>
	<circle class="st7" cx="504.8" cy="530.5" r="16.9"/>
	<circle class="st7" cx="718.8" cy="592.5" r="16.9"/>
	<circle class="st7" cx="634.4" cy="654.4" r="16.9"/>
	<circle class="st8" cx="1426.9" cy="282.7" r="16.9"/>
	<circle class="st8" cx="1234.7" cy="344.7" r="16.9"/>
	<circle class="st8" cx="1266.9" cy="406.6" r="16.9"/>
	<circle class="st8" cx="1229.1" cy="468.6" r="16.9"/>
	<circle class="st8" cx="1426.3" cy="530.5" r="16.9"/>
	<circle class="st8" cx="1403.8" cy="592.5" r="16.9"/>
	<circle class="st8" cx="1001.5" cy="654.4" r="16.9"/>
</g>
<g id="text">
	<rect x="79.1" y="92" class="st1" width="1116.9" height="56"/>
	<text transform="matrix(1 0 0 1 79.1228 129.3235)" class="st2 st9 st10 st11">FAMOUS BREWERIES OF BROOKLYN</text>
	<rect x="105" y="274.2" class="st1" width="185.5" height="13.5"/>
	<text transform="matrix(1 0 0 1 105.501 287.4401)" class="st2 st3 st4">F&amp;M Schaefer Brewery</text>
	<rect x="77.3" y="337" class="st1" width="213.2" height="13.4"/>
	<text transform="matrix(1 0 0 1 81.2192 350.3062)" class="st2 st3 st4">Huber-Hittleman Brewery</text>
	<rect x="128.1" y="389" class="st1" width="162.4" height="35"/>
	<text transform="matrix(1 0 0 1 144.6315 402.3129)"><tspan x="0" y="0" class="st2 st3 st4">John F. Trommer’s </tspan><tspan x="-8.5" y="21" class="st2 st3 st4">Evergreen Brewery</tspan></text>
	<rect x="133.8" y="451.9" class="st1" width="156.7" height="35"/>
	<text transform="matrix(1 0 0 1 155.0367 465.1789)"><tspan x="0" y="0" class="st2 st3 st4">Leonhard Eppig’s </tspan><tspan x="-14.7" y="21" class="st2 st3 st4">Germania Brewery</tspan></text>
	<rect x="123.6" y="514.8" class="st1" width="166.9" height="34.9"/>
	<text transform="matrix(1 0 0 1 155.2521 528.0444)"><tspan x="0" y="0" class="st2 st3 st4">Liebmann &amp; Sons </tspan><tspan x="-27.9" y="21" class="st2 st3 st4">(Rheingold Brewery)</tspan></text>
	<rect x="172.7" y="584.4" class="st1" width="117.8" height="21.2"/>
	<text transform="matrix(1 0 0 1 180.686 597.6937)" class="st2 st3 st4">Piels Brewery</text>
	<rect x="75.6" y="647.3" class="st1" width="214.9" height="21.2"/>
	<text transform="matrix(1 0 0 1 104.2041 660.5217)" class="st2 st3 st4">William Ulmer Brewery</text>
	<rect x="79.1" y="170.6" class="st1" width="1369.4" height="33.5"/>
	<text transform="matrix(1 0 0 1 79.1227 192.7495)" class="st8 st3 st12">A comparison of the lifespans of some notable historic breweries in Brooklyn, New York</text>
</g>
</svg>
